# xmcd
#
# Track frame offsets:
#	150
#	12074
#	22874
#	39900
#	51150
#	73500
#	85350
#	99675
#	124575
#	137175
#	147075
#
# Disc length: 2278 seconds
#
# Revision: 1
# Processed by: cddbd v1.5.2PL0 Copyright (c) Steve Scherf et al.
# Submitted via: audiograbber 1.83.01
#
DISCID=8a08e40b
DTITLE=James Cotton - The James Cotton Blues Band
DYEAR=1900
DGENRE=
TTITLE0=Good Time Charlie
TTITLE1=Turn On Your Lovelight
TTITLE2=Something On Your Mind
TTITLE3=Don't Start Me Talkin'
TTITLE4=Jelly, Jelly
TTITLE5=Off The Wall
TTITLE6=Feelin' Good
TTITLE7=Sweet Sixteen
TTITLE8=Knock On Wood
TTITLE9=Oh Why
TTITLE10=Blues In My Sleep
EXTD=
EXTT0=
EXTT1=
EXTT2=
EXTT3=
EXTT4=
EXTT5=
EXTT6=
EXTT7=
EXTT8=
EXTT9=
EXTT10=
PLAYORDER=
